<svg width="48" height="48" viewBox="0 0 48 48" fill="none" xmlns="http://www.w3.org/2000/svg">
<g clip-path="url(#clip0_1_109)">
<path d="M43.6502 22.2822C43.0747 22.2864 42.5047 22.3962 41.9674 22.6064L36.2271 17.8217C36.3684 17.3001 36.4689 16.7589 36.4689 16.1886C36.4689 12.8103 33.8022 10.095 30.4844 10.095C27.1667 10.095 24.5 12.8103 24.5 16.1886C24.5 17.1538 24.7394 18.0532 25.1272 18.8625L18.1636 27.2424C17.8849 27.1893 17.6022 27.1607 17.3186 27.1571C16.8902 27.1571 16.4856 27.2302 16.093 27.3374L9.95776 21.0903C10.0655 20.693 10.1373 20.281 10.1373 19.8447C10.1373 17.1441 8.00204 14.9699 5.34973 14.9699C2.69742 14.9699 0.562164 17.1441 0.562164 19.8447C0.562164 22.5454 2.69742 24.7196 5.34973 24.7196C5.77822 24.7196 6.18277 24.6465 6.57535 24.5393L12.7106 30.7864C12.5955 31.1914 12.5351 31.6104 12.5311 32.032C12.5311 34.7327 14.6663 36.9069 17.3186 36.9069C19.971 36.9069 22.1062 34.7327 22.1062 32.032C22.1062 31.4543 21.9913 30.9107 21.8118 30.3964L28.7849 22.0068C29.3282 22.1676 29.8908 22.2822 30.4844 22.2822C31.4291 22.2769 32.3589 22.0421 33.1966 21.5973L38.9393 26.382C38.8942 26.638 38.8686 26.8971 38.8627 27.1571C38.8627 29.8578 40.9979 32.032 43.6502 32.032C46.3026 32.032 48.4378 29.8578 48.4378 27.1571C48.4378 24.4564 46.3026 22.2822 43.6502 22.2822Z" fill="#00A0C1"/>
</g>
<defs>
<clipPath id="clip0_1_109">
<rect width="48" height="48" fill="white"/>
</clipPath>
</defs>
</svg>
