<svg width="48" height="48" viewBox="0 0 48 48" fill="none" xmlns="http://www.w3.org/2000/svg">
<g clip-path="url(#clip0_1_97)">
<g clip-path="url(#clip1_1_97)">
<path d="M24.3406 22.8022C28.6448 22.8022 31.9925 19.3069 31.9925 15.0171C31.9925 10.7273 28.4854 7.39087 24.1812 7.39087C19.877 7.39087 16.5293 10.8862 16.5293 15.0171C16.5293 19.3069 20.0364 22.8022 24.3406 22.8022ZM24.1812 10.5685C24.3406 10.5685 24.3406 10.5685 24.1812 10.5685C26.7318 10.5685 28.8042 12.6339 28.8042 15.176C28.8042 17.7181 26.7318 19.6246 24.1812 19.6246C21.6305 19.6246 19.7176 17.5592 19.7176 15.176C19.7176 12.6339 21.7899 10.5685 24.1812 10.5685Z" fill="#00A0C1"/>
<path d="M47.9339 21.8487C44.905 19.1477 40.9197 17.7178 36.7749 17.8767H35.4996C35.1808 19.1477 34.7025 20.2599 34.0648 21.2132C35.0213 21.0543 35.8184 21.0543 36.7749 21.0543C39.8038 20.8954 42.8327 21.8487 45.2239 23.5964V35.0357H48.4122V22.3253L47.9339 21.8487Z" fill="#00A0C1"/>
<path d="M33.1084 7.70814C33.9055 5.80158 36.1373 4.8483 38.2097 5.6427C40.1226 6.4371 41.0791 8.66141 40.282 10.7269C39.6444 12.1568 38.2097 13.1101 36.7749 13.1101C36.4561 13.1101 35.9779 13.1101 35.659 12.9512C35.8184 13.7456 35.8184 14.54 35.8184 15.1755V16.1288C36.1373 16.1288 36.4561 16.2876 36.7749 16.2876C40.7603 16.2876 43.9486 13.1101 43.9486 9.29693C43.9486 5.32494 40.7603 2.14734 36.9343 2.14734C34.3837 2.14734 32.1519 3.41838 30.8766 5.6427C31.6737 6.11934 32.4707 6.75486 33.1084 7.70814Z" fill="#00A0C1"/>
<path d="M14.9351 21.3721C14.2975 20.4189 13.8192 19.3067 13.5004 18.0357H12.2251C8.08031 17.8768 4.09495 19.3067 1.06607 21.8488L0.58783 22.3254V35.0358H3.77612V23.5965C6.32675 21.8488 9.19621 20.8955 12.2251 21.0544C13.1816 21.0544 14.1381 21.2133 14.9351 21.3721Z" fill="#00A0C1"/>
<path d="M12.2251 16.1294C12.544 16.1294 12.8628 16.1294 13.1816 15.9705V15.0172C13.1816 14.2228 13.1816 13.4284 13.341 12.7929C13.0222 12.9518 12.544 12.9518 12.2251 12.9518C10.1527 12.9518 8.39917 11.2041 8.39917 9.13868C8.39917 7.07324 10.1527 5.32556 12.2251 5.32556C13.8193 5.32556 15.254 6.27884 15.8917 7.70876C16.5293 6.91436 17.4858 6.11996 18.2829 5.48444C16.2105 2.14796 11.9063 1.0358 8.55859 3.10124C5.21088 5.16668 4.09498 9.45644 6.16737 12.7929C7.44269 14.8584 9.67449 16.1294 12.2251 16.1294Z" fill="#00A0C1"/>
<path d="M37.4126 31.3816L37.0938 30.905C33.9055 27.4096 29.4419 25.3442 24.6594 25.5031C19.877 25.3442 15.254 27.4096 12.0657 30.905L11.7469 31.3816V43.4565C11.7469 44.8864 12.8628 46.1574 14.4569 46.1574H34.862C36.2967 46.1574 37.572 44.8864 37.572 43.4565V31.3816H37.4126ZM34.2243 42.9798H14.9351V32.4938C17.4858 29.9517 20.9929 28.6807 24.6594 28.6807C28.1666 28.5218 31.6737 29.9517 34.2243 32.4938V42.9798Z" fill="#00A0C1"/>
</g>
</g>
<defs>
<clipPath id="clip0_1_97">
<rect width="48" height="48" fill="white"/>
</clipPath>
<clipPath id="clip1_1_97">
<rect width="48" height="44.2105" fill="white" transform="translate(0.5 2)"/>
</clipPath>
</defs>
</svg>
