<svg width="48" height="48" viewBox="0 0 48 48" fill="none" xmlns="http://www.w3.org/2000/svg">
<g clip-path="url(#clip0_1_116)">
<path d="M15.5641 33.9949C14.7531 33.1802 15.1759 33.4099 13.2196 32.8839C12.332 32.6449 11.5517 32.1855 10.8461 31.6352L6.6116 42.0639C6.20187 43.0736 6.9672 44.1705 8.05174 44.1292L12.9695 43.9408L16.3519 47.5296C17.0985 48.3208 18.4089 48.0742 18.8187 47.0646L23.6767 35.1002C22.6649 35.6664 21.5421 35.9983 20.3811 35.9983C18.5611 35.9983 16.8512 35.2867 15.5641 33.9949ZM42.2276 42.0639L37.9931 31.6352C37.2875 32.1864 36.5072 32.6449 35.6196 32.8839C33.6531 33.4127 34.0843 33.1821 33.2751 33.9949C31.988 35.2867 30.2772 35.9983 28.4572 35.9983C27.2961 35.9983 26.1733 35.6655 25.1616 35.1002L30.0196 47.0646C30.4293 48.0742 31.7407 48.3208 32.4864 47.5296L35.8697 43.9408L40.7875 44.1292C41.872 44.1705 42.6373 43.0727 42.2276 42.0639ZM31.0463 31.8733C32.4724 30.4155 32.6357 30.5411 34.6667 29.9852C35.9631 29.6299 36.9767 28.5939 37.3239 27.2683C38.022 24.6058 37.8409 24.9274 39.7459 22.9792C40.6951 22.0089 41.0656 20.5942 40.7184 19.2686C40.0212 16.608 40.0203 16.9792 40.7184 14.3158C41.0656 12.9902 40.6951 11.5755 39.7459 10.6052C37.8409 8.65706 38.022 8.97769 37.3239 6.31613C36.9767 4.9905 35.9631 3.95456 34.6667 3.59925C32.0645 2.88581 32.3781 3.07238 30.4713 1.12331C29.5221 0.153002 28.138 -0.226685 26.8416 0.128627C24.2404 0.841127 24.6035 0.842064 21.9976 0.128627C20.7012 -0.226685 19.3171 0.152065 18.3679 1.12331C16.4629 3.07144 16.7765 2.88581 14.1735 3.59925C12.8771 3.95456 11.8635 4.9905 11.5163 6.31613C10.8191 8.97769 10.9992 8.65706 9.09427 10.6052C8.14507 11.5755 7.7736 12.9902 8.12174 14.3158C8.81894 16.9746 8.81987 16.6033 8.12174 19.2677C7.77454 20.5933 8.14507 22.008 9.09427 22.9792C10.9992 24.9274 10.8181 24.6058 11.5163 27.2683C11.8635 28.5939 12.8771 29.6299 14.1735 29.9852C16.2623 30.5571 16.4181 30.4671 17.7929 31.8733C19.0277 33.1361 20.9513 33.3621 22.4353 32.4189C23.0288 32.0405 23.7172 31.8396 24.4201 31.8396C25.123 31.8396 25.8114 32.0405 26.4048 32.4189C27.8879 33.3621 29.8115 33.1361 31.0463 31.8733ZM15.6145 16.4946C15.6145 11.523 19.5569 7.49269 24.4196 7.49269C29.2823 7.49269 33.2247 11.523 33.2247 16.4946C33.2247 21.4661 29.2823 25.4964 24.4196 25.4964C19.5569 25.4964 15.6145 21.4661 15.6145 16.4946Z" fill="#00A0C1"/>
</g>
<defs>
<clipPath id="clip0_1_116">
<rect width="35.84" height="48" fill="white" transform="translate(6.5)"/>
</clipPath>
</defs>
</svg>
