<svg width="102" height="75" viewBox="0 0 102 75" fill="none" xmlns="http://www.w3.org/2000/svg">
<path d="M102 0C89.1225 8.6825 87.7519 14.9838 86.6362 16.9114C85.5684 18.8877 84.7716 26.6793 82.9228 30.4536C81.0581 34.2765 74.2847 37.2894 72.3881 38.5529C70.5234 39.8164 67.8778 44.7246 65.7103 48.9525C48.4819 48.2397 39.0309 55.2376 24.4003 64.1145C29.0859 62.5432 31.3012 61.4093 31.3012 61.4093C46.3144 55.5778 53.5022 50.3456 76.1016 53.4395C76.2769 53.4395 76.4044 53.5367 76.5478 53.5691C77.1694 53.9255 77.3925 54.6868 77.0419 55.3186L68.4516 70.8369C68.0531 71.5983 67.2084 72.0032 66.3637 71.8251C46.155 67.9698 30.2016 74.6274 15.5391 74.838C3.84094 75.0162 0 69.4114 0 69.1523C0 68.9741 0.095625 68.8769 0.270938 68.8769C0.270938 68.8769 6.375 68.8769 16.7025 66.3985C28.4325 43.6717 38.8875 35.7181 50.2669 35.7181C50.2669 35.7181 61.6941 35.7181 64.7062 45.7451C68.34 39.3143 69.2166 37.7754 69.2166 37.7754C70.0612 36.2527 74.7947 25.27 82.9866 14.8704C91.1944 4.50324 97.3941 1.92765 102 0Z" fill="#737373"/>
</svg>
