<svg width="83" height="59" viewBox="0 0 83 59" fill="none" xmlns="http://www.w3.org/2000/svg">
<path d="M0 0.977901H12.6121V34.9925C12.6121 40.3873 15.0437 43.5981 17.0215 44.9345C14.9627 46.7436 8.72148 48.3409 4.02031 44.4782C1.26445 42.1964 0 38.3989 0 34.8622V0.977901ZM78.7689 29.2555V25.6699H82.6272V13.1528H78.3961C76.7588 5.60663 70.0961 0 62.1365 0C52.9611 0 45.4879 7.49724 45.4879 16.7384V45.945C48.0816 46.3199 51.2266 45.8961 53.8689 43.6633C56.641 41.3815 57.8893 37.6003 57.8893 34.0472V32.9552H64.1791V20.4381H57.8893V16.6406C57.8893 11.0014 66.3514 11.0014 66.3514 16.6406V29.2066C66.3514 38.4315 73.8084 45.945 83 45.945V33.4768C80.6494 33.4768 78.7689 31.5699 78.7689 29.2555ZM31.0602 13.1202V31.5373C31.0602 34.0472 27.202 34.0472 27.202 31.5373V13.1202H14.752V34.7481C14.752 38.6271 16.0488 43.5492 22.0469 45.1627C28.0449 46.7599 31.4816 43.4351 31.4816 43.4351C31.1412 45.6191 29.1311 47.2326 25.824 47.5586C23.3113 47.8193 20.1178 46.9718 18.5291 46.2873V57.745C22.598 58.9674 26.8777 59.3423 31.1088 58.511C38.7441 57.0279 43.5588 50.6226 43.5588 42.0823V13.0387H31.0602V13.1202Z" fill="#737373"/>
</svg>
