<svg width="103" height="34" viewBox="0 0 103 34" fill="none" xmlns="http://www.w3.org/2000/svg">
<path d="M23.2417 31.8829L29.4056 32.0106C27.2812 31.2763 25.2212 30.3824 23.2417 29.3289V31.8829ZM32.5278 31.0369V31.8829L29.4056 32.0106C35.2798 34.0059 40.6551 34.2773 44.6464 33.1599C41.4437 33.1918 37.2754 32.7449 32.5278 31.0369ZM98.3351 12.6482C100.894 12.6482 102.986 10.589 102.986 8.03501C102.986 5.48102 100.91 4.12421 98.3351 4.12421C95.7762 4.12421 93.684 5.49698 93.684 8.03501C93.684 10.573 95.7601 12.6482 98.3351 12.6482ZM93.6679 31.8829H102.986V14.2444H93.6679V31.8829ZM81.8068 31.8829H91.1251V0.708246L81.8068 5.06599V31.8829ZM76.8178 12.8237C73.8887 9.91858 68.7065 10.0942 68.7065 10.0942C68.7065 10.0942 63.5082 9.91858 60.5953 12.8237C57.6662 15.7289 57.8915 18.235 57.8915 21.22C57.8915 24.205 57.6662 26.6951 60.5953 29.6003C63.5243 32.5054 68.7065 32.3298 68.7065 32.3298C68.7065 32.3298 73.9048 32.5054 76.8178 29.6003C79.7468 26.6951 79.5215 24.205 79.5215 21.22C79.5054 18.219 79.7307 15.7129 76.8178 12.8237ZM70.4125 24.3007C70.4125 24.8754 70.1228 26.296 68.6904 26.296C67.2581 26.296 66.9684 24.8754 66.9684 24.3007V17.8519C66.9684 16.4632 68.1432 16.112 68.6904 16.112C69.2376 16.112 70.4125 16.4472 70.4125 17.8519V24.3007ZM53.3209 12.8237C50.3918 9.91858 45.2096 10.0942 45.2096 10.0942C45.2096 10.0942 40.0275 9.91858 37.0984 12.8237C36.7926 13.127 36.5029 13.4463 36.2454 13.7815C30.0976 9.05661 24.5775 6.35895 19.8137 4.02843V0.72421L16.1926 2.41623C7.43761 -1.11147 1.86918 -0.488936 0.533396 2.43219C0.533396 2.43219 -3.47395 7.66787 10.4793 20.1186V31.8829H19.7976V27.3176C18.7515 26.6472 17.7054 25.9289 16.6754 25.1467C14.2936 23.3589 12.2657 21.6989 10.4954 20.1345V15.1862C12.6037 17.5327 15.404 20.1984 19.0895 23.2153L19.8137 23.7899V19.0331C19.8137 17.9317 20.0873 16.128 21.5518 16.128C23.0164 16.128 23.2578 17.2294 23.2578 18.5223V26.296C26.1546 28.2435 29.2607 29.8237 32.5439 31.0209V16.0322C32.5439 13.0472 30.3873 10.0622 26.0098 10.0622C23.467 10.0463 21.1012 11.3712 19.8137 13.558V4.89041C26.557 8.22656 33.3164 12.3129 35.8914 14.1965C34.2498 16.527 34.3946 18.682 34.3946 21.1721C34.3946 24.1571 34.1693 26.6472 37.0984 29.5524C40.0275 32.4575 45.2096 32.282 45.2096 32.282C45.2096 32.282 50.4079 32.4575 53.3209 29.5524C56.25 26.6472 56.0085 24.1571 56.0085 21.1721C56.0085 18.219 56.25 15.7129 53.3209 12.8237ZM10.4793 5.06599V15.1702C2.64168 6.47069 4.21886 3.03876 4.81433 2.54393C6.98699 0.724209 10.8495 1.26693 15.1787 2.87914L10.4793 5.06599ZM46.9317 24.3007C46.9317 24.8754 46.642 26.296 45.2096 26.296C43.7773 26.296 43.4876 24.8754 43.4876 24.3007V17.8519C43.4876 16.4632 44.6625 16.112 45.2096 16.112C45.7568 16.112 46.9317 16.4472 46.9317 17.8519V24.3007Z" fill="#737373"/>
</svg>
