<svg width="103" height="42" viewBox="0 0 103 42" fill="none" xmlns="http://www.w3.org/2000/svg">
<path d="M26.5386 3.29318L19.57 4.75682L19.5378 27.4114C19.5378 31.5955 22.7244 34.3 26.957 34.3C29.3067 34.3 31.0288 33.8705 31.9783 33.3614V27.9841C31.0609 28.35 26.5547 29.6546 26.5547 25.4864V15.4318H31.9783V9.41818H26.5547L26.5386 3.29318ZM40.8781 11.5023L40.4436 9.41818H34.2636V33.7909H41.3931V17.3886C43.083 15.1932 45.9316 15.6227 46.8489 15.9091V9.41818C45.8833 9.08409 42.5519 8.46364 40.8781 11.5023ZM55.7327 0L48.5548 1.51136V7.27045L55.7327 5.75909V0ZM7.21 16.5932C7.21 15.4955 8.14344 15.0659 9.64016 15.05C11.8128 15.05 14.5809 15.7023 16.7536 16.8636V10.2136C14.3878 9.29091 12.022 8.925 9.65625 8.925C3.8625 8.925 0 11.9159 0 16.9114C0 24.7386 10.8633 23.4659 10.8633 26.8386C10.8633 28.1432 9.72063 28.5727 8.12735 28.5727C5.76156 28.5727 2.70375 27.6023 0.305781 26.3136V32.6773C2.96125 33.8068 5.64891 34.2841 8.11125 34.2841C14.0498 34.2841 18.1377 31.7705 18.1377 26.6796C18.1377 18.2636 7.21 19.775 7.21 16.5932ZM102.984 21.8909C102.984 14.6523 99.4433 8.94091 92.6517 8.94091C85.8602 8.94091 81.7241 14.6523 81.7241 21.8432C81.7241 30.3545 86.6005 34.2841 93.553 34.2841C96.9649 34.2841 99.5238 33.5205 101.471 32.4545V27.1409C99.5238 28.1114 97.2867 28.7 94.4542 28.7C91.67 28.7 89.2238 27.7295 88.9019 24.4205H102.887C102.92 24.0545 102.984 22.575 102.984 21.8909ZM88.8375 19.2182C88.8375 16.0364 90.817 14.7 92.6035 14.7C94.3577 14.7 96.2245 16.0364 96.2245 19.2182H88.8375ZM70.6677 8.94091C67.8674 8.94091 66.0648 10.2455 65.067 11.1523L64.6969 9.40227H58.4042V41.9841L65.5499 40.4886L65.5659 32.5023C66.5959 33.25 68.1248 34.2841 70.6194 34.2841C75.7372 34.2841 80.4044 30.5932 80.4044 21.6205C80.4205 13.4114 75.6889 8.94091 70.6677 8.94091ZM68.9617 28.4296C67.288 28.4296 66.2902 27.825 65.5981 27.0932L65.5499 16.5932C66.2902 15.7818 67.3202 15.1932 68.9617 15.1932C71.5689 15.1932 73.3714 18.0886 73.3714 21.7795C73.3875 25.5818 71.6172 28.4296 68.9617 28.4296ZM48.5709 33.7909H55.7488V9.41818H48.5709V33.7909Z" fill="#737373"/>
</svg>
