<svg width="23" height="23" viewBox="0 0 23 23" fill="none" xmlns="http://www.w3.org/2000/svg">
<path d="M17.6545 12.3517C17.5431 12.2402 17.4109 12.1517 17.2653 12.0913C17.1197 12.031 16.9637 11.9999 16.8061 11.9999C16.6485 11.9999 16.4924 12.031 16.3469 12.0913C16.2013 12.1517 16.069 12.2402 15.9577 12.3517L14.0449 14.2645C13.1581 14.0005 11.5033 13.4005 10.4546 12.3517C9.40577 11.3029 8.80577 9.64814 8.54177 8.76135L10.4546 6.84857C10.5661 6.73723 10.6546 6.60498 10.7149 6.45941C10.7753 6.31383 10.8064 6.15778 10.8064 6.00018C10.8064 5.84258 10.7753 5.68653 10.7149 5.54095C10.6546 5.39538 10.5661 5.26313 10.4546 5.15179L5.6546 0.351838C5.54326 0.240304 5.41102 0.151819 5.26544 0.0914472C5.11986 0.031075 4.96381 0 4.80621 0C4.64861 0 4.49256 0.031075 4.34698 0.0914472C4.20141 0.151819 4.06916 0.240304 3.95782 0.351838L0.703453 3.60621C0.247458 4.0622 -0.00934005 4.68859 0.000259851 5.32819C0.0278596 7.03697 0.480255 12.9721 5.15781 17.6497C9.83536 22.3272 15.7705 22.7784 17.4805 22.8072H17.5141C18.1477 22.8072 18.7465 22.5576 19.2001 22.104L22.4544 18.8497C22.566 18.7383 22.6545 18.6061 22.7148 18.4605C22.7752 18.3149 22.8063 18.1589 22.8063 18.0013C22.8063 17.8437 22.7752 17.6876 22.7148 17.542C22.6545 17.3965 22.566 17.2642 22.4544 17.1529L17.6545 12.3517ZM17.5021 20.406C16.0045 20.3808 10.8806 19.9788 6.85459 15.9517C2.81543 11.9125 2.42424 6.77057 2.40024 5.30299L4.80621 2.89701L7.90938 6.00018L6.3578 7.55177C6.21675 7.6927 6.11305 7.86657 6.05606 8.05764C5.99907 8.24872 5.9906 8.45098 6.0314 8.64615C6.0602 8.78415 6.76459 12.0565 8.75657 14.0485C10.7486 16.0405 14.0209 16.7449 14.1589 16.7737C14.354 16.8156 14.5564 16.8078 14.7477 16.751C14.9389 16.6942 15.1128 16.5901 15.2533 16.4485L16.8061 14.8969L19.9093 18.0001L17.5021 20.406Z" fill="#8EC2F2"/>
</svg>
